<svg width="30" height="30" viewBox="0 0 30 30" fill="none" xmlns="http://www.w3.org/2000/svg">
<g clip-path="url(#clip0)">
<path d="M11.0536 15.8138C9.31359 15.8138 7.90234 17.225 7.90234 18.965V26.8475C7.90234 28.5875 9.31359 29.9987 11.0536 29.9987C12.7936 29.9987 14.2048 28.5875 14.2048 26.8475V18.965C14.2036 17.225 12.7923 15.8138 11.0536 15.8138Z" fill="#04BAAC"/>
<path d="M0.0239258 18.965C0.0239258 20.7062 1.43643 22.1187 3.17768 22.1187C4.91893 22.1187 6.33143 20.7062 6.33143 18.965V15.8113H3.18018C3.17893 15.8113 3.17893 15.8113 3.17768 15.8113C1.43643 15.8113 0.0239258 17.2237 0.0239258 18.965Z" fill="#04BAAC"/>
<path d="M11.0574 -0.00125122C11.0561 -0.00125122 11.0549 -0.00125122 11.0536 -0.00125122C9.3124 -0.00125122 7.8999 1.41125 7.8999 3.1525C7.8999 4.89375 9.3124 6.30625 11.0536 6.30625H14.2049C14.2049 4.5175 14.2049 4.9525 14.2049 3.14625C14.2036 1.4075 12.7949 -0.00125122 11.0574 -0.00125122Z" fill="#04BAAC"/>
<path d="M3.15619 14.2125H11.0537C12.7949 14.2125 14.2074 12.8 14.2074 11.0587C14.2074 9.3175 12.7949 7.905 11.0537 7.905H3.15619C1.41494 7.905 0.00244141 9.3175 0.00244141 11.0587C0.00244141 12.8 1.41494 14.2125 3.15619 14.2125Z" fill="#04BAAC"/>
<path d="M26.8213 7.90375C25.0826 7.90375 23.6738 9.3125 23.6738 11.0512V11.0575V14.2112H26.8251C28.5663 14.2112 29.9788 12.7987 29.9788 11.0575C29.9788 9.31625 28.5663 7.90375 26.8251 7.90375C26.8238 7.90375 26.8226 7.90375 26.8213 7.90375Z" fill="#04BAAC"/>
<path d="M15.8013 3.1525V11.0587C15.8013 12.7987 17.2125 14.21 18.9525 14.21C20.6925 14.21 22.1038 12.7987 22.1038 11.0587V3.1525C22.1038 1.4125 20.6925 0.00125074 18.9525 0.00125074C17.2125 0.00125074 15.8013 1.4125 15.8013 3.1525Z" fill="#04BAAC"/>
<path d="M22.1023 26.845C22.1023 25.105 20.6911 23.6937 18.9511 23.6937H15.7998V26.8475C15.8011 28.5863 17.2111 29.9963 18.9511 29.9963C20.6911 29.9963 22.1023 28.585 22.1023 26.845Z" fill="#04BAAC"/>
<path d="M26.8486 15.8113H18.9511C17.2099 15.8113 15.7974 17.2237 15.7974 18.965C15.7974 20.7062 17.2099 22.1187 18.9511 22.1187H26.8486C28.5898 22.1187 30.0023 20.7062 30.0023 18.965C30.0023 17.2237 28.5898 15.8113 26.8486 15.8113Z" fill="#04BAAC"/>
</g>
<defs>
<clipPath id="clip0">
<rect width="30" height="30" fill="white"/>
</clipPath>
</defs>
</svg>
