<svg width="30" height="26" viewBox="0 0 30 26" fill="none" xmlns="http://www.w3.org/2000/svg">
<path d="M0.45295 12.094C3.52204 10.325 6.94797 8.84846 10.149 7.36443C15.656 4.93372 21.1848 2.54513 26.7695 0.321382C27.8561 -0.0575 29.8084 -0.427979 29.9998 1.25699C29.895 3.64215 29.4638 6.01333 29.168 8.38452C28.4173 13.599 27.5496 18.7956 26.7034 23.9929C26.4119 25.7241 24.3395 26.6203 23.0134 25.5124C19.8266 23.2599 16.6153 21.0292 13.4692 18.7244C12.4386 17.6286 13.3943 16.0549 14.3147 15.2723C16.9394 12.5655 19.723 10.2657 22.2106 7.41904C22.8816 5.72344 20.899 7.15243 20.245 7.59032C16.6517 10.1815 13.1464 12.9309 9.35791 15.2083C7.42277 16.323 5.16733 15.3704 3.23307 14.7484C1.4988 13.9969 -1.04243 13.2397 0.45295 12.094Z" fill="#04BAAC"/>
</svg>
